<svg xmlns="http://www.w3.org/2000/svg" width="64" height="64" viewBox="0 0 64 64">
  <defs>
    <radialGradient id="bg" cx="50%" cy="42%" r="72%">
      <stop offset="0%" stop-color="#2a2a2d" />
      <stop offset="58%" stop-color="#141417" />
      <stop offset="100%" stop-color="#09090b" />
    </radialGradient>
    <linearGradient id="gold" x1="10%" y1="0%" x2="90%" y2="100%">
      <stop offset="0%" stop-color="#f1d39a" />
      <stop offset="50%" stop-color="#b98a4a" />
      <stop offset="100%" stop-color="#6f4e27" />
    </linearGradient>
    <filter id="softShadow" x="-20%" y="-20%" width="140%" height="140%">
      <feDropShadow dx="0" dy="1.5" stdDeviation="1.2" flood-color="#000000" flood-opacity="0.55" />
    </filter>
  </defs>

  <rect x="1.5" y="1.5" width="61" height="61" rx="14" fill="url(#bg)" stroke="#1f1f24" />

  <circle cx="32" cy="32" r="24.5" fill="none" stroke="url(#gold)" stroke-width="1.4" opacity="0.7" />
  <circle cx="32" cy="32" r="20.5" fill="none" stroke="url(#gold)" stroke-width="1.1" opacity="0.45" />

  <path
    d="M32 8.5 35.8 12.3 32 16.1 28.2 12.3Z
       M32 47.9 35.8 51.7 32 55.5 28.2 51.7Z
       M8.5 32 12.3 28.2 16.1 32 12.3 35.8Z
       M47.9 32 51.7 28.2 55.5 32 51.7 35.8Z"
    fill="none"
    stroke="url(#gold)"
    stroke-width="1"
    opacity="0.7"
  />

  <path
    d="M17 24.5c4.3-7.1 11.7-10.7 22-10.7
       M47 24.5c-4.3-7.1-11.7-10.7-22-10.7
       M17 39.5c4.3 7.1 11.7 10.7 22 10.7
       M47 39.5c-4.3 7.1-11.7 10.7-22 10.7"
    fill="none"
    stroke="url(#gold)"
    stroke-width="0.9"
    stroke-linecap="round"
    opacity="0.35"
  />

  <text
    x="32"
    y="40.5"
    text-anchor="middle"
    font-family="Georgia, 'Times New Roman', serif"
    font-size="24"
    font-style="italic"
    font-weight="700"
    letter-spacing="-1.4"
    fill="#f5eee3"
    filter="url(#softShadow)"
  >DnD</text>
</svg>
